<svg xml:space="preserve" viewBox="0 0 1200 1200" height="1200px" width="1200px" y="0px" x="0px" xmlns:xlink="http://www.w3.org/1999/xlink" xmlns="http://www.w3.org/2000/svg" fill="#2ecc71" id="svg2" version="1.1">
<path d="M1118.948,592.893H732.471l49.909,227.792h312.254L1118.948,592.893z
	 M466.287,592.893H79.809l24.315,227.792h312.253L466.287,592.893z M1189.334,526.347c8.535,9.384,11.948,19.622,10.237,30.714
	l-33.272,307.135c-4.564,20.081-18.878,35.561-38.393,35.832h-376.24c-20.232-1.345-33.639-14.035-37.111-31.993l-60.147-267.463
	c-32.547-20.271-75.345-17.317-110.057-2.56l-60.147,270.022c-4.772,19.452-18.653,31.768-37.112,31.993H70.851
	c-21.166-1.672-35.301-16.94-37.112-35.832L0.465,557.061c-1.706-11.944,1.28-22.182,8.958-30.714l432.548-222.673
	c20.748-9.255,41.297-0.366,49.909,17.916c7.223,20.882,2.533,44.668-16.636,53.749L201.383,499.473h792.152L719.673,375.338
	c-20.315-11.516-25.569-34.709-17.916-53.749c10.862-19.479,32.864-25.945,51.189-17.916L1189.334,526.347z" id="path10249"></path>
</svg>